<svg id="Layer_1" data-name="Layer 1" xmlns="http://www.w3.org/2000/svg" viewBox="0 0 135.68 32"><title>1</title><g id="Group_37" data-name="Group 37"><path id="Rectangle_53" data-name="Rectangle 53" d="M15.84,0h104a16,16,0,0,1,16,16h0a16,16,0,0,1-16,16h-104a16,16,0,0,1-16-16h0A16,16,0,0,1,15.84,0Z" fill="#e497cd"/><path id="Rectangle_57" data-name="Rectangle 57" d="M15.84,0h16V32h-16a16,16,0,0,1-16-16h0A16,16,0,0,1,15.84,0Z" fill="#d62196"/><rect id="Rectangle_56" data-name="Rectangle 56" x="34.84" width="32" height="32" fill="#d62196"/><rect id="Rectangle_55" data-name="Rectangle 55" x="69.84" width="32" height="32" fill="#d62196"/></g></svg>