<svg id="Layer_1" data-name="Layer 1" xmlns="http://www.w3.org/2000/svg" viewBox="0 0 136.95 31.72"><title>1</title><g id="Group_36" data-name="Group 36"><path id="Rectangle_37" data-name="Rectangle 37" d="M16,.14H120a16,16,0,0,1,16,16h0a16,16,0,0,1-16,16H16a16,16,0,0,1-16-16H0A16,16,0,0,1,16,.14Z" fill="#e497cd"/><path id="Rectangle_38" data-name="Rectangle 38" d="M16,.14H32v32H16a16,16,0,0,1-16-16H0A16,16,0,0,1,16,.14Z" fill="#d62196"/><rect id="Rectangle_39" data-name="Rectangle 39" x="34.97" y="0.14" width="32" height="32" fill="#d62196"/><rect id="Rectangle_40" data-name="Rectangle 40" x="69.97" y="0.14" width="32" height="32" fill="#d62196"/><path id="Rectangle_41" data-name="Rectangle 41" d="M121,32.14H105V.14h16a16,16,0,0,1,16,16h0A16,16,0,0,1,121,32.14Z" fill="#d62196"/></g></svg>