<svg id="Layer_1" data-name="Layer 1" xmlns="http://www.w3.org/2000/svg" xmlns:xlink="http://www.w3.org/1999/xlink" viewBox="0 0 374.81 812.99"><defs><clipPath id="clip-path"><rect x="-0.1" y="0.5" width="375" height="812" fill="none"/></clipPath><linearGradient id="linear-gradient" x1="4272.49" y1="1061.37" x2="4273.52" y2="1062.38" gradientTransform="matrix(812, 0, 0, -812, -3469546.96, 862692.89)" gradientUnits="userSpaceOnUse"><stop offset="0" stop-color="#250e44"/><stop offset="0.58" stop-color="#3d077a"/><stop offset="1" stop-color="#2d00b5"/></linearGradient><clipPath id="clip-path-2"><rect x="-227.1" y="0.5" width="812" height="812" fill="none"/></clipPath><linearGradient id="linear-gradient-2" x1="4274.44" y1="1081.26" x2="4275.24" y2="1081.99" gradientTransform="matrix(49.92, -205.27, -205.27, -49.92, 9004.38, 931969.67)" gradientUnits="userSpaceOnUse"><stop offset="0" stop-color="#801eff"/><stop offset="0.04" stop-color="#7818f7" stop-opacity="0.9"/><stop offset="0.09" stop-color="#6d11ed" stop-opacity="0.78"/><stop offset="0.14" stop-color="#640be4" stop-opacity="0.68"/><stop offset="0.2" stop-color="#5e06dd" stop-opacity="0.6"/><stop offset="0.27" stop-color="#5903d9" stop-opacity="0.54"/><stop offset="0.33" stop-color="#5601d6" stop-opacity="0.51"/><stop offset="0.42" stop-color="#5500d5" stop-opacity="0.5"/><stop offset="1" stop-color="#6970ff" stop-opacity="0"/></linearGradient><linearGradient id="linear-gradient-3" x1="4264.57" y1="1076.5" x2="4265.37" y2="1077.23" gradientTransform="matrix(149.38, -149.38, -149.38, -149.38, -476195.88, 798262.55)" xlink:href="#linear-gradient-2"/><linearGradient id="linear-gradient-4" x1="4240.48" y1="1063.65" x2="4241.28" y2="1064.37" gradientTransform="matrix(114.07, 0, 0, -114.07, -483805.31, 121367.61)" xlink:href="#linear-gradient-2"/><linearGradient id="linear-gradient-5" x1="3899.54" y1="1085.13" x2="3900.34" y2="1085.86" gradientTransform="matrix(11.3, 0, 0, -11.3, -44052.63, 12396.02)" xlink:href="#linear-gradient-2"/><linearGradient id="linear-gradient-6" x1="4274.8" y1="1081.32" x2="4275.6" y2="1082.04" gradientTransform="matrix(46.26, -206.18, -206.18, -46.26, 25209.45, 932231.11)" xlink:href="#linear-gradient-2"/><linearGradient id="linear-gradient-7" x1="4231.71" y1="1084.33" x2="4232.51" y2="1085.06" gradientTransform="matrix(76.4, -32.23, -32.23, -76.4, -288034.67, 219351.01)" xlink:href="#linear-gradient-2"/><linearGradient id="linear-gradient-8" x1="4269.42" y1="1112.26" x2="4270.22" y2="1112.99" gradientTransform="matrix(18.85, -80.75, -80.75, -18.85, 9674.48, 366334.75)" xlink:href="#linear-gradient-2"/><linearGradient id="linear-gradient-9" x1="4226.39" y1="1064.53" x2="4227.2" y2="1065.26" gradientTransform="matrix(82.92, 0, 0, -82.92, -350094.13, 89098.51)" xlink:href="#linear-gradient-2"/><linearGradient id="linear-gradient-10" x1="3844.73" y1="1088.59" x2="3845.53" y2="1089.32" gradientTransform="matrix(9.87, 0, 0, -9.87, -37627.04, 11404.5)" xlink:href="#linear-gradient-2"/><linearGradient id="linear-gradient-11" x1="4120.89" y1="1138.57" x2="4121.69" y2="1139.3" gradientTransform="matrix(22.6, -9.4, -9.4, -22.6, -82306.18, 65126.73)" xlink:href="#linear-gradient-2"/><linearGradient id="linear-gradient-12" x1="3771.36" y1="1093.21" x2="3772.16" y2="1093.94" gradientTransform="matrix(8.44, 0, 0, -8.44, -31749.79, 9575.59)" xlink:href="#linear-gradient-2"/><linearGradient id="linear-gradient-13" x1="3771.36" y1="1093.21" x2="3772.16" y2="1093.94" gradientTransform="matrix(8.44, 0, 0, -8.44, -31603.6, 9512.92)" xlink:href="#linear-gradient-2"/><linearGradient id="linear-gradient-14" x1="3771.36" y1="1093.21" x2="3772.16" y2="1093.94" gradientTransform="matrix(8.44, 0, 0, -8.44, -31653.21, 9471.93)" xlink:href="#linear-gradient-2"/></defs><title>1</title><g id="Group_34" data-name="Group 34"><g clip-path="url(#clip-path)"><g id="Mask_Group_2" data-name="Mask Group 2"><g id="bg"><rect id="Rectangle_60" data-name="Rectangle 60" x="-227.1" y="0.5" width="812" height="812" fill="url(#linear-gradient)"/><g clip-path="url(#clip-path-2)"><g id="Group_19" data-name="Group 19"><g id="Group_18" data-name="Group 18" opacity="0.71"><circle id="Ellipse_35" data-name="Ellipse 35" cx="410.58" cy="504.97" r="105.63" opacity="0.29" fill="url(#linear-gradient-2)" style="isolation:isolate"/><circle id="Ellipse_37" data-name="Ellipse 37" cx="29.85" cy="334.41" r="105.62" opacity="0.29" fill="url(#linear-gradient-3)" style="isolation:isolate"/><circle id="Ellipse_40" data-name="Ellipse 40" cx="-54.16" cy="1.63" r="57.03" opacity="0.29" fill="url(#linear-gradient-4)" style="isolation:isolate"/><path id="Path_64" data-name="Path 64" d="M37.34,126.13a5.65,5.65,0,1,1-5.65-5.65h0A5.65,5.65,0,0,1,37.34,126.13Z" opacity="0.29" fill="url(#linear-gradient-5)" style="isolation:isolate"/><circle id="Ellipse_42" data-name="Ellipse 42" cx="-16.98" cy="742.01" r="105.65" opacity="0.29" fill="url(#linear-gradient-6)" style="isolation:isolate"/><circle id="Ellipse_46" data-name="Ellipse 46" cx="354.42" cy="94.31" r="41.46" opacity="0.58" fill="url(#linear-gradient-7)" style="isolation:isolate"/><circle id="Ellipse_47" data-name="Ellipse 47" cx="321.4" cy="574.28" r="41.46" opacity="0.58" fill="url(#linear-gradient-8)" style="isolation:isolate"/><circle id="Ellipse_48" data-name="Ellipse 48" cx="395.59" cy="799.16" r="41.46" opacity="0.58" fill="url(#linear-gradient-9)" style="isolation:isolate"/><circle id="Ellipse_52" data-name="Ellipse 52" cx="339.26" cy="652.69" r="4.94" opacity="0.58" fill="url(#linear-gradient-10)" style="isolation:isolate"/><circle id="Ellipse_54" data-name="Ellipse 54" cx="140.99" cy="626.4" r="12.24" opacity="0.58" fill="url(#linear-gradient-11)" style="isolation:isolate"/><path id="Path_67" data-name="Path 67" d="M102.72,341.86a4.22,4.22,0,1,1-4.22-4.22,4.22,4.22,0,0,1,4.22,4.22Z" opacity="0.58" fill="url(#linear-gradient-12)" style="isolation:isolate"/><circle id="Ellipse_55" data-name="Ellipse 55" cx="244.69" cy="279.19" r="4.22" opacity="0.58" fill="url(#linear-gradient-13)" style="isolation:isolate"/><circle id="Ellipse_56" data-name="Ellipse 56" cx="195.08" cy="238.2" r="4.22" opacity="0.58" fill="url(#linear-gradient-14)" style="isolation:isolate"/></g></g></g><g id="Group_20" data-name="Group 20" opacity="0.21"><path id="Path_70" data-name="Path 70" d="M144.8,229.38a5.37,5.37,0,0,1-2.71-.73l-14.26-8.12a5.46,5.46,0,0,1-2-7.45h0l8.12-14.26a5.44,5.44,0,0,1,7.44-2h0l14.26,8.12a5.42,5.42,0,0,1,2.53,3.25,5.35,5.35,0,0,1-.53,4.14l-8.12,14.26a5.55,5.55,0,0,1-3.25,2.55,5.75,5.75,0,0,1-1.48.26Zm-6-30.54a2.64,2.64,0,0,0-2.31,1.31l-8.12,14.26a2.76,2.76,0,0,0-.26,2,2.68,2.68,0,0,0,1.24,1.63l14.26,8.2a2.57,2.57,0,0,0,2,.26,2.6,2.6,0,0,0,1.62-1.24L155.32,211a2.5,2.5,0,0,0,.26-2,2.61,2.61,0,0,0-1.23-1.62l-14.26-8.12a2.7,2.7,0,0,0-1.35-.44Z" fill="#fff" opacity="0.05" style="isolation:isolate"/><path id="Path_72" data-name="Path 72" d="M10,337.56a12.24,12.24,0,0,1-3.69-5L-7,298.81A12.06,12.06,0,0,1-.22,283.17l33.76-13.33a12,12,0,0,1,15.62,6.78L62.5,310.39A12,12,0,0,1,55.77,326l-.05,0L22,339.34a11.94,11.94,0,0,1-9.22-.14A13,13,0,0,1,10,337.56Zm31.67-61a5.83,5.83,0,0,0-5.8-.88L2.12,289a5.84,5.84,0,0,0-3.25,7.57L12.2,330.38a5.86,5.86,0,0,0,7.58,3.25l33.75-13.34a5.76,5.76,0,0,0,3.25-3.1,5.85,5.85,0,0,0,.08-4.48L43.53,279a5.82,5.82,0,0,0-1.85-2.37Z" fill="#fff"/><path id="Path_73" data-name="Path 73" d="M378,579.74a18.51,18.51,0,1,1,18.51-18.51A18.52,18.52,0,0,1,378,579.74Zm0-33.45a15,15,0,1,0,14.95,15v0A15,15,0,0,0,378,546.29Z" fill="#fff"/><path id="Path_74" data-name="Path 74" d="M385.69,244.31a18.52,18.52,0,1,1,18.51-18.52,18.51,18.51,0,0,1-18.51,18.52Zm0-33.46a14.94,14.94,0,1,0,15,14.94,14.95,14.95,0,0,0-15-14.94Z" fill="#fff"/><path id="Path_75" data-name="Path 75" d="M112.84,639.25a18.52,18.52,0,1,1,18.51-18.52,18.52,18.52,0,0,1-18.51,18.52Zm0-33.47a15,15,0,1,0,14.94,15v0A15,15,0,0,0,112.84,605.78Z" fill="#fff"/><path id="Path_76" data-name="Path 76" d="M10.55,100.76A18.52,18.52,0,1,1,29.06,82.25a18.52,18.52,0,0,1-18.51,18.51Zm0-33.47a15,15,0,1,0,15,15h0a15,15,0,0,0-14.95-15Z" fill="#fff" opacity="0.05" style="isolation:isolate"/><path id="Path_78" data-name="Path 78" d="M326.69,266.26,314.2,290.38a8.9,8.9,0,0,1-15.4.71l-14.61-22.87a8.88,8.88,0,0,1,7.08-13.69l27.12-1.25a8.9,8.9,0,0,1,9.32,8.46,8.79,8.79,0,0,1-1,4.53Zm-39.38-5.08a4.87,4.87,0,0,0,.22,4.87l14.62,22.87a4.87,4.87,0,0,0,8.46-.39l12.47-24.13a4.87,4.87,0,0,0-2.05-6.58,4.76,4.76,0,0,0-2.51-.55l-27.14,1.26a4.92,4.92,0,0,0-4.11,2.65Z" fill="#fff" opacity="0.36" style="isolation:isolate"/><path id="Path_82" data-name="Path 82" d="M155.71,312.45,145,308.37l4.08-10.67A2.21,2.21,0,1,0,145,296a.3.3,0,0,0,0,.08l-4.07,10.67-10.73-4a2.22,2.22,0,0,0-1.63,4.13l10.67,4.07-4.07,10.69a2.22,2.22,0,1,0,4.14,1.62l4.07-10.67L154,316.64a2.22,2.22,0,0,0,1.63-4.14h0Z" fill="#fff"/><path id="Path_83" data-name="Path 83" d="M272.15,660.7l-10.67-4.11,4.08-10.67a2.22,2.22,0,1,0-4.14-1.62h0L257.34,655l-10.67-4.08A2.21,2.21,0,1,0,245,655l.07,0,10.67,4.07-4.08,10.69a2.21,2.21,0,0,0,4.12,1.62l4.1-10.67,10.67,4.08a2.22,2.22,0,0,0,1.62-4.14Z" fill="#fff" opacity="0.45" style="isolation:isolate"/></g></g></g></g></g></svg>