<svg id="Layer_1" data-name="Layer 1" xmlns="http://www.w3.org/2000/svg" xmlns:xlink="http://www.w3.org/1999/xlink" viewBox="0 0 375 812"><defs><clipPath id="clip-path"><rect x="-562.85" y="-0.5" width="375" height="812" fill="none"/></clipPath><linearGradient id="linear-gradient" x1="3709.73" y1="1060.38" x2="3710.76" y2="1061.39" gradientTransform="matrix(812, 0, 0, -812, -3013149.8, 861887.49)" gradientUnits="userSpaceOnUse"><stop offset="0" stop-color="#250e44"/><stop offset="0.58" stop-color="#3d077a"/><stop offset="1" stop-color="#2d00b5"/></linearGradient><clipPath id="clip-path-2"><rect x="-789.85" y="-0.5" width="812" height="812" fill="none"/></clipPath><linearGradient id="linear-gradient-2" x1="3694.97" y1="1061.57" x2="3695.78" y2="1062.3" gradientTransform="matrix(211.25, 0, 0, -211.25, -780649.39, 224404.31)" gradientUnits="userSpaceOnUse"><stop offset="0" stop-color="#801eff"/><stop offset="0.04" stop-color="#7818f7" stop-opacity="0.9"/><stop offset="0.09" stop-color="#6d11ed" stop-opacity="0.78"/><stop offset="0.14" stop-color="#640be4" stop-opacity="0.68"/><stop offset="0.2" stop-color="#5e06dd" stop-opacity="0.6"/><stop offset="0.27" stop-color="#5903d9" stop-opacity="0.54"/><stop offset="0.33" stop-color="#5601d6" stop-opacity="0.51"/><stop offset="0.42" stop-color="#5500d5" stop-opacity="0.5"/><stop offset="1" stop-color="#6970ff" stop-opacity="0"/></linearGradient><linearGradient id="linear-gradient-3" x1="3690.31" y1="1061.86" x2="3691.11" y2="1062.59" gradientTransform="matrix(171.69, 0, 0, -171.69, -633646.07, 182940.81)" xlink:href="#linear-gradient-2"/><clipPath id="clip-path-3"><rect width="375" height="812" fill="none"/></clipPath><linearGradient id="linear-gradient-4" x1="3710.39" y1="1060.37" x2="3711.43" y2="1061.38" gradientTransform="matrix(807, 0, 0, -819, -2994356.45, 869315.23)" xlink:href="#linear-gradient"/><clipPath id="clip-path-4"><rect x="-9" width="807" height="819" fill="none"/></clipPath><linearGradient id="linear-gradient-5" x1="3712.39" y1="1077.77" x2="3713.19" y2="1078.5" gradientTransform="matrix(49.6, -207.14, -204.5, -48.97, 36370.6, 821875.57)" xlink:href="#linear-gradient-2"/><linearGradient id="linear-gradient-6" x1="3703.71" y1="1073.61" x2="3704.51" y2="1074.34" gradientTransform="matrix(149.58, -149.58, -149.58, -149.58, -393166.09, 715022.3)" xlink:href="#linear-gradient-2"/><linearGradient id="linear-gradient-7" x1="3682.46" y1="1062.63" x2="3683.27" y2="1063.36" gradientTransform="matrix(113.4, 0, 0, -115.04, -417460.84, 122284.34)" xlink:href="#linear-gradient-2"/><linearGradient id="linear-gradient-8" x1="3384.59" y1="1083.9" x2="3385.39" y2="1084.63" gradientTransform="matrix(11.24, 0, 0, -11.4, -37842.73, 12439.17)" xlink:href="#linear-gradient-2"/><linearGradient id="linear-gradient-9" x1="3384.63" y1="1084.24" x2="3385.43" y2="1084.97" gradientTransform="matrix(11.24, 0, 0, -11.24, -37791.17, 12314.66)" xlink:href="#linear-gradient-2"/><linearGradient id="linear-gradient-10" x1="3384.64" y1="1084.24" x2="3385.44" y2="1084.97" gradientTransform="matrix(11.24, 0, 0, -11.24, -37870.83, 12296.73)" xlink:href="#linear-gradient-2"/><linearGradient id="linear-gradient-11" x1="3384.63" y1="1084.24" x2="3385.43" y2="1084.97" gradientTransform="matrix(11.24, 0, 0, -11.24, -37991.45, 12448.1)" xlink:href="#linear-gradient-2"/><linearGradient id="linear-gradient-12" x1="3712.64" y1="1077.82" x2="3713.44" y2="1078.55" gradientTransform="matrix(46.63, -207.8, -205.11, -46.02, 48210.19, 821915.07)" xlink:href="#linear-gradient-2"/><linearGradient id="linear-gradient-13" x1="3670.16" y1="1063.51" x2="3670.96" y2="1064.24" gradientTransform="matrix(82.43, 0, 0, -83.63, -302434.92, 89319.74)" xlink:href="#linear-gradient-2"/><linearGradient id="linear-gradient-14" x1="3670.16" y1="1063.51" x2="3670.96" y2="1064.24" gradientTransform="matrix(82.43, 0, 0, -83.63, -302475.66, 89692.99)" xlink:href="#linear-gradient-2"/><linearGradient id="linear-gradient-15" x1="3670.16" y1="1063.51" x2="3670.96" y2="1064.24" gradientTransform="matrix(82.43, 0, 0, -83.63, -302563.23, 89496.71)" xlink:href="#linear-gradient-2"/><linearGradient id="linear-gradient-16" x1="3692.38" y1="1211.44" x2="3693.18" y2="1212.17" gradientTransform="matrix(5.49, -24.06, -23.75, -5.42, 8662.54, 96069.05)" xlink:href="#linear-gradient-2"/><linearGradient id="linear-gradient-17" x1="3578.84" y1="1128.29" x2="3579.64" y2="1129.02" gradientTransform="matrix(22.52, -9.37, -9.46, -22.75, -69569.13, 59841.4)" xlink:href="#linear-gradient-2"/><linearGradient id="linear-gradient-18" x1="3272.94" y1="1092.33" x2="3273.74" y2="1093.06" gradientTransform="matrix(8.4, 0, 0, -8.4, -27180.48, 9522.22)" xlink:href="#linear-gradient-2"/></defs><title>1</title><g id="Group_34" data-name="Group 34"><g clip-path="url(#clip-path)"><g id="Mask_Group_2" data-name="Mask Group 2"><g id="bg"><rect id="Rectangle_60" data-name="Rectangle 60" x="-789.85" y="-0.5" width="812" height="812" fill="url(#linear-gradient)"/><g clip-path="url(#clip-path-2)"><g id="Group_19" data-name="Group 19"><g id="Group_18" data-name="Group 18" opacity="0.71"><circle id="Ellipse_38" data-name="Ellipse 38" cx="-12.88" cy="81.61" r="105.62" opacity="0.29" fill="url(#linear-gradient-2)" style="isolation:isolate"/><circle id="Ellipse_39" data-name="Ellipse 39" cx="2.45" cy="575.7" r="85.85" opacity="0.29" fill="url(#linear-gradient-3)" style="isolation:isolate"/></g></g></g></g></g></g></g><g id="Group_33" data-name="Group 33"><g clip-path="url(#clip-path-3)"><g id="Mask_Group_3" data-name="Mask Group 3"><g id="bg-2" data-name="bg"><rect id="Rectangle_63" data-name="Rectangle 63" x="-9" width="807" height="819" fill="url(#linear-gradient-4)"/><g clip-path="url(#clip-path-4)"><g id="Group_22" data-name="Group 22"><g id="Group_21" data-name="Group 21" opacity="0.71"><path id="Path_88" data-name="Path 88" d="M-33-7.61c13.51-57.24,70.2-92.54,126.63-78.83S184.82-15.22,171.31,42,101.1,134.57,44.68,120.86-46.54,49.63-33-7.61Z" opacity="0.29" fill="url(#linear-gradient-5)" style="isolation:isolate"/><path id="Path_89" data-name="Path 89" d="M171.71,261.25a104,104,0,0,1,147-1.5l1.5,1.5c41,41.6,41,109.05,0,150.65a103.93,103.93,0,0,1-147,1.5q-.77-.73-1.5-1.5C130.7,370.3,130.7,302.85,171.71,261.25Z" opacity="0.29" fill="url(#linear-gradient-6)" style="isolation:isolate"/><ellipse id="Ellipse_59" data-name="Ellipse 59" cx="162.45" cy="0.96" rx="56.7" ry="57.52" opacity="0.29" fill="url(#linear-gradient-7)" style="isolation:isolate"/><ellipse id="Ellipse_60" data-name="Ellipse 60" cx="190.36" cy="79.15" rx="5.62" ry="5.7" opacity="0.29" fill="url(#linear-gradient-8)" style="isolation:isolate"/><path id="Path_90" data-name="Path 90" d="M253.4,126.52a5.62,5.62,0,1,1-5.61-5.7,5.6,5.6,0,0,1,5.61,5.7Z" opacity="0.29" fill="url(#linear-gradient-9)" style="isolation:isolate"/><path id="Path_91" data-name="Path 91" d="M174.57,108.66a5.62,5.62,0,1,1-5.68-5.66,5.55,5.55,0,0,1,4,1.63,5.75,5.75,0,0,1,1.68,4Z" opacity="0.29" fill="url(#linear-gradient-10)" style="isolation:isolate"/><path id="Path_92" data-name="Path 92" d="M53.13,260a5.62,5.62,0,1,1-5.61-5.7,5.61,5.61,0,0,1,5.61,5.7Z" opacity="0.29" fill="url(#linear-gradient-11)" style="isolation:isolate"/><path id="Path_93" data-name="Path 93" d="M96.92,724.32c12.7-57.42,68.88-93.53,125.48-80.64s92.19,69.88,79.49,127.3S233,864.5,176.41,851.62,84.22,781.74,96.92,724.32Z" opacity="0.29" fill="url(#linear-gradient-12)" style="isolation:isolate"/><ellipse id="Ellipse_62" data-name="Ellipse 62" cx="131.98" cy="354.24" rx="41.22" ry="41.81" opacity="0.58" fill="url(#linear-gradient-13)" style="isolation:isolate"/><ellipse id="Ellipse_63" data-name="Ellipse 63" cx="91.23" cy="727.49" rx="41.22" ry="41.81" opacity="0.58" fill="url(#linear-gradient-14)" style="isolation:isolate"/><ellipse id="Ellipse_65" data-name="Ellipse 65" cx="3.67" cy="531.21" rx="41.22" ry="41.81" opacity="0.58" fill="url(#linear-gradient-15)" style="isolation:isolate"/><path id="Path_96" data-name="Path 96" d="M141.76,644a12.16,12.16,0,0,1,14.47-9.31l.1,0a12.36,12.36,0,0,1,9.16,14.78A12.18,12.18,0,0,1,151,658.79l-.1,0A12.35,12.35,0,0,1,141.76,644Z" opacity="0.58" fill="url(#linear-gradient-16)" style="isolation:isolate"/><path id="Path_99" data-name="Path 99" d="M351.77,619.66a12.11,12.11,0,0,1,15.84,6.5.77.77,0,0,1,.07.16,12.41,12.41,0,0,1-6.56,16.14,12.12,12.12,0,0,1-15.85-6.5l-.06-.16A12.41,12.41,0,0,1,351.77,619.66Z" opacity="0.58" fill="url(#linear-gradient-17)" style="isolation:isolate"/><path id="Path_100" data-name="Path 100" d="M318.4,344.09a4.2,4.2,0,1,1-4.2-4.26,4.2,4.2,0,0,1,4.2,4.26Z" opacity="0.58" fill="url(#linear-gradient-18)" style="isolation:isolate"/></g></g></g><g id="Group_23" data-name="Group 23" opacity="0.21"><path id="Path_102" data-name="Path 102" d="M150.53,712.68a9.92,9.92,0,0,1-.95-5l2-29.59A9.84,9.84,0,0,1,162.12,669l29.58,2a9.84,9.84,0,0,1,9.14,10.48h0l-2.05,29.58a9.86,9.86,0,0,1-10.49,9.14l-29.59-2a9.84,9.84,0,0,1-6.76-3.38A10.2,10.2,0,0,1,150.53,712.68Zm44.78-33.9a4.76,4.76,0,0,0-3.95-2.69L161.77,674a4.8,4.8,0,0,0-5.07,4.43l-2,29.58a4.76,4.76,0,0,0,4.43,5.06l29.57,2.07a4.8,4.8,0,0,0,5.07-4.43l2.05-29.59a4.77,4.77,0,0,0-.46-2.38Z" fill="#fff" opacity="0.36" style="isolation:isolate"/><path id="Path_103" data-name="Path 103" d="M361,232.12a5.6,5.6,0,0,1-2.82-.76l-14.84-8.45a5.68,5.68,0,0,1-2.1-7.75h0l8.45-14.84a5.68,5.68,0,0,1,7.75-2.1h0l14.83,8.45a5.66,5.66,0,0,1,2.64,3.38,5.55,5.55,0,0,1-.56,4.31l-8.45,14.84a5.78,5.78,0,0,1-3.38,2.65,6.14,6.14,0,0,1-1.53.27Zm-6.28-31.79a2.73,2.73,0,0,0-2.4,1.37l-8.45,14.84a2.79,2.79,0,0,0-.27,2.1,2.73,2.73,0,0,0,1.28,1.69l14.84,8.53a2.7,2.7,0,0,0,2.1.27,2.76,2.76,0,0,0,1.69-1.28L371.92,213a2.66,2.66,0,0,0,.27-2.08,2.74,2.74,0,0,0-1.29-1.69l-14.83-8.45a2.91,2.91,0,0,0-1.4-.46Z" fill="#fff" opacity="0.05" style="isolation:isolate"/><path id="Path_105" data-name="Path 105" d="M227.89,341.23a12.66,12.66,0,0,1-3.83-5.19l-13.88-35.13a12.56,12.56,0,0,1,7.07-16.27l35.13-13.87a12.54,12.54,0,0,1,16.26,7.06L282.51,313a12.5,12.5,0,0,1-7,16.23l-.05,0-35.13,13.88a12.48,12.48,0,0,1-9.6-.15,13.4,13.4,0,0,1-2.84-1.71Zm33-63.45a6.08,6.08,0,0,0-6-.91l-35.13,13.87a6.08,6.08,0,0,0-3.38,7.87l13.87,35.15a6.11,6.11,0,0,0,7.9,3.38l35.11-13.88a5.94,5.94,0,0,0,3.38-3.22,6.19,6.19,0,0,0,.09-4.67l-13.88-35.13a6.05,6.05,0,0,0-1.92-2.47Z" fill="#fff"/><path id="Path_108" data-name="Path 108" d="M329.41,638.46a19.27,19.27,0,1,1,19.26-19.27,19.26,19.26,0,0,1-19.26,19.27Zm0-34.83A15.57,15.57,0,1,0,345,619.21v0A15.56,15.56,0,0,0,329.41,603.63Z" fill="#fff"/><path id="Path_109" data-name="Path 109" d="M229,104.14a19.27,19.27,0,1,1,19.27-19.27A19.26,19.26,0,0,1,229,104.14Zm0-34.83a15.57,15.57,0,1,0,15.57,15.56h0A15.56,15.56,0,0,0,229,69.31Z" fill="#fff" opacity="0.05" style="isolation:isolate"/><path id="Path_114" data-name="Path 114" d="M107,524.33,94,549.45a9.26,9.26,0,0,1-16,.74L62.79,526.4a9.27,9.27,0,0,1,7.37-14.27l28.22-1.3a9.28,9.28,0,0,1,8.67,13.52Zm-41-5.27a5,5,0,0,0,.24,5.07l15.2,23.8a5.08,5.08,0,0,0,7,1.57,5,5,0,0,0,1.8-2l13-25.09A5.06,5.06,0,0,0,98.51,515l-28.23,1.3A5.07,5.07,0,0,0,66,519.06Z" fill="#fff" opacity="0.36" style="isolation:isolate"/><path id="Path_115" data-name="Path 115" d="M372.28,314.67l-11.1-4.24,4.25-11.1a2.31,2.31,0,0,0-4.3-1.69l-4.24,11.1-11.17-4.19a2.31,2.31,0,0,0-1.69,4.29l11.1,4.25-4.24,11.11a2.31,2.31,0,1,0,4.31,1.69l4.24-11.1,11.1,4.25a2.31,2.31,0,0,0,1.69-4.31h0Z" fill="#fff"/><path id="Path_117" data-name="Path 117" d="M133.16,119.79l-11.1-4.23,4.24-11.1a2.31,2.31,0,0,0-4.29-1.69l-4.25,11.15-11.11-4.28a2.31,2.31,0,1,0-1.69,4.29h0l11.1,4.26-4.25,11.1a2.31,2.31,0,1,0,4.31,1.69l4.24-11.1,11.1,4.24a2.31,2.31,0,1,0,1.69-4.3Z" fill="#fff" opacity="0.45" style="isolation:isolate"/><path id="Path_118" data-name="Path 118" d="M125.4,203.15,114.3,199l4.24-11.1a2.31,2.31,0,1,0-4.29-1.69h0L110,197.27,98.89,193a2.31,2.31,0,1,0-1.69,4.3h0l11.1,4.25-4.24,11.1a2.3,2.3,0,0,0,4.21,1.85,1.8,1.8,0,0,0,.08-.21l4.26-11.1,11.16,4.19a2.31,2.31,0,0,0,1.69-4.3Z" fill="#fff"/></g></g></g></g></g></svg>