<svg id="Layer_1" data-name="Layer 1" xmlns="http://www.w3.org/2000/svg" viewBox="0 0 318.98 87.83"><title>1</title><g id="Group_17" data-name="Group 17"><g id="Group_2" data-name="Group 2"><path id="Path_6" data-name="Path 6" d="M16.5,12.11h9.34A2.22,2.22,0,0,1,28,14l5.71,36.09h.17L39.62,14a2.22,2.22,0,0,1,2.19-1.88h9.34a2.22,2.22,0,0,1,2.22,2.22v48.6a2.21,2.21,0,0,1-2.22,2.22H46.68a2.21,2.21,0,0,1-2.22-2.22h0V25h-.18L37.74,63.31a2.22,2.22,0,0,1-2.19,1.84H31.42a2.21,2.21,0,0,1-2.19-1.84L22.68,25h-.17V62.93a2.22,2.22,0,0,1-2.22,2.22H16.5a2.21,2.21,0,0,1-2.22-2.22h0V14.33a2.22,2.22,0,0,1,2.22-2.22Z" fill="#1a1818"/><path id="Path_7" data-name="Path 7" d="M63.31,12.11H84.59a2.23,2.23,0,0,1,2.22,2.22h0v3.14a2.22,2.22,0,0,1-2.22,2.22H72.74a2.23,2.23,0,0,0-2.23,2.22h0v9.58a2.22,2.22,0,0,0,2.23,2.22h8.5a2.22,2.22,0,0,1,2.22,2.22h0v3.14a2.23,2.23,0,0,1-2.22,2.22h-8.5a2.23,2.23,0,0,0-2.23,2.21h0V55.36a2.24,2.24,0,0,0,2.23,2.22H84.59a2.22,2.22,0,0,1,2.22,2.21h0v3.13a2.22,2.22,0,0,1-2.22,2.22H63.31a2.21,2.21,0,0,1-2.22-2.22V14.33A2.22,2.22,0,0,1,63.31,12.11Z" fill="#1a1818"/><path id="Path_8" data-name="Path 8" d="M95.85,62.5q-3.55-3.41-3.56-9.62V24.39q0-6.21,3.56-9.62t10.33-3.41q6.78,0,10.34,3.41t3.55,9.62v3.39A2.22,2.22,0,0,1,117.85,30h-4.47a2.23,2.23,0,0,1-2.22-2.22V23.86c0-3.28-1.57-4.93-4.71-4.93s-4.72,1.64-4.72,4.93V53.48c0,3.24,1.57,4.85,4.72,4.85s4.71-1.61,4.71-4.85V47.6a2.22,2.22,0,0,1,2.22-2.22h4.48a2.22,2.22,0,0,1,2.22,2.22v5.28q0,6.21-3.56,9.62t-10.34,3.41Q99.42,65.91,95.85,62.5Z" fill="#1a1818"/><path id="Path_9" data-name="Path 9" d="M128.64,12.11h5a2.23,2.23,0,0,1,2.22,2.22v48.6a2.22,2.22,0,0,1-2.22,2.22h-5a2.21,2.21,0,0,1-2.22-2.22V14.33A2.22,2.22,0,0,1,128.64,12.11Z" fill="#1a1818"/><path id="Path_10" data-name="Path 10" d="M145.79,12.11h7.94a2.24,2.24,0,0,1,2.13,1.6l8.71,30.15h.17V14.33A2.23,2.23,0,0,1,167,12.11h4a2.22,2.22,0,0,1,2.22,2.22h0v48.6a2.21,2.21,0,0,1-2.22,2.22h-5.8a2.22,2.22,0,0,1-2.13-1.6L152.14,26.43H152v36.5a2.22,2.22,0,0,1-2.22,2.22h-4a2.21,2.21,0,0,1-2.22-2.22V14.33A2.23,2.23,0,0,1,145.79,12.11Z" fill="#1a1818"/><path id="Path_11" data-name="Path 11" d="M190,12.11h9.08a2.22,2.22,0,0,1,2.18,1.82l9,48.6a2.23,2.23,0,0,1-1.78,2.59,2.73,2.73,0,0,1-.41,0h-4.87A2.21,2.21,0,0,1,201,63.29l-1.41-8.67v.15h-8.83a2.23,2.23,0,0,0-2.2,1.86l-1.1,6.66a2.21,2.21,0,0,1-2.19,1.86H181a2.21,2.21,0,0,1-2.22-2.22,1.81,1.81,0,0,1,0-.4l8.95-48.6A2.23,2.23,0,0,1,190,12.11Zm5.84,35.46a2.21,2.21,0,0,0,2.22-2.21,2.19,2.19,0,0,0,0-.36l-3.79-23.64h-.17L190.35,45a2.22,2.22,0,0,0,1.85,2.54,2,2,0,0,0,.35,0Z" fill="#1a1818"/><path id="Path_12" data-name="Path 12" d="M217.13,19.69h-5.41a2.22,2.22,0,0,1-2.23-2.22V14.33a2.23,2.23,0,0,1,2.22-2.22h24.71a2.22,2.22,0,0,1,2.22,2.22v3.14a2.21,2.21,0,0,1-2.22,2.22H231a2.22,2.22,0,0,0-2.23,2.22v41a2.21,2.21,0,0,1-2.22,2.22h-5a2.23,2.23,0,0,1-2.23-2.22h0v-41a2.21,2.21,0,0,0-2.22-2.22Z" fill="#1a1818"/><path id="Path_13" data-name="Path 13" d="M246.53,62.42q-3.69-3.48-3.69-9.85V24.69q0-6.36,3.69-9.85t10.63-3.48q6.94,0,10.63,3.48t3.69,9.85V52.58q0,6.36-3.69,9.85t-10.63,3.48Q250.21,65.91,246.53,62.42Zm15.52-9.31V24.16c0-3.48-1.63-5.23-4.89-5.23s-4.88,1.75-4.88,5.23v29c0,3.48,1.62,5.22,4.88,5.22S262.05,56.59,262.05,53.11Z" fill="#1a1818"/><g id="Group_1" data-name="Group 1"><path id="Path_14" data-name="Path 14" d="M278.51,14.33a2.23,2.23,0,0,1,2.22-2.22h11.76q7.27,0,10.63,3t3.34,9.2v3.26q0,8.25-6.17,10.45v.16a7.15,7.15,0,0,1,4.84,3.71,16.81,16.81,0,0,1,1.42,7.5v9.32a30,30,0,0,0,.17,3.67l0,.2a2.23,2.23,0,0,1-1.86,2.54,1.84,1.84,0,0,1-.33,0h-5a2.23,2.23,0,0,1-2.16-1.68,6.58,6.58,0,0,1-.14-.75,31,31,0,0,1-.17-4.09v-9.7c0-2.42-.45-4.11-1.33-5.07s-2.42-1.44-4.59-1.44h-1a2.22,2.22,0,0,0-2.22,2.22V62.93a2.22,2.22,0,0,1-2.22,2.22h-5a2.23,2.23,0,0,1-2.22-2.22h0Zm12.86,20.52a6.16,6.16,0,0,0,4.24-1.29c.95-.86,1.42-2.3,1.42-4.32V25.15A6.14,6.14,0,0,0,295.87,21a4.71,4.71,0,0,0-3.64-1.29h-2.06A2.21,2.21,0,0,0,288,21.91V32.63a2.21,2.21,0,0,0,2.22,2.21Z" fill="#330d73"/><path id="Path_15" data-name="Path 15" d="M313.45,71.47v-.06a25.67,25.67,0,0,1-.13-3V64.3a8.92,8.92,0,0,0,0-2.73s0-.09,0-.14V59.05c0-.9,0-1.76-.11-2.59V49.39a23,23,0,0,0-2.12-10.49c-.18-.34-.36-.67-.55-1a19.42,19.42,0,0,0,2.59-10.34V24.31c0-6.09-1.87-10.85-5.56-14.16C304.08,7,299,5.46,292.49,5.46H280.73a8.88,8.88,0,0,0-8,5l-.41-.41c-3.73-3.52-8.84-5.3-15.2-5.3-5.6,0-10.23,1.38-13.8,4.11a8.86,8.86,0,0,0-7-3.35h-24.7a8.83,8.83,0,0,0-6.32,2.65,8.87,8.87,0,0,0-6.33-2.65H190a8.85,8.85,0,0,0-8.73,7.26l-1.47,8V14.33a8.88,8.88,0,0,0-8.88-8.86h-4a8.88,8.88,0,0,0-6.62,3,8.9,8.9,0,0,0-6.62-3h-7.93a8.85,8.85,0,0,0-6.08,2.42,8.88,8.88,0,0,0-6.08-2.42h-5A8.86,8.86,0,0,0,121,9.86c-3.63-3.41-8.61-5.15-14.81-5.15-5.89,0-10.66,1.58-14.24,4.66a8.88,8.88,0,0,0-7.35-3.9H63.31a8.86,8.86,0,0,0-6.08,2.42,8.86,8.86,0,0,0-6.08-2.42H41.81a8.83,8.83,0,0,0-8,5,8.81,8.81,0,0,0-8-5H16.5a8.88,8.88,0,0,0-8.88,8.86V72.59A7.43,7.43,0,0,0,15.07,80h3.82a7.48,7.48,0,0,0,5.62-2.55A7.44,7.44,0,0,0,30.13,80h4.18a7.45,7.45,0,0,0,5.63-2.55A7.46,7.46,0,0,0,45.56,80h4.51a7.5,7.5,0,0,0,6.15-3.22A7.45,7.45,0,0,0,62.36,80h21.5a7.46,7.46,0,0,0,7-4.92c.25.28.5.57.78.84,3.39,3.21,8.1,4.84,14,4.84s10.64-1.63,14-4.84a16.44,16.44,0,0,0,1.43-1.58A7.44,7.44,0,0,0,128.37,80h5a7.46,7.46,0,0,0,6.14-3.22A7.45,7.45,0,0,0,145.69,80h4a7.43,7.43,0,0,0,7.45-7.39V71.46l.94,3.2A7.49,7.49,0,0,0,165.23,80h5.86a7.44,7.44,0,0,0,5.1-2,7.5,7.5,0,0,0,5.12,2h4.24a7.4,7.4,0,0,0,7.34-6.18l.7-4.2h2l.68,4.18a7.41,7.41,0,0,0,7.35,6.2h4.92a7.37,7.37,0,0,0,6.84-4.49A7.47,7.47,0,0,0,222.26,80h5l1.77-.06c8.2,0,8.77-5.11,8.77-10.48l.15-7.76c.18.4.37.78.57,1.15.13,5.43,1.92,9.81,5.35,13s8.28,4.89,14.3,4.89,10.84-1.65,14.3-4.89a16.79,16.79,0,0,0,2.12-2.42A7.42,7.42,0,0,0,282,80h5a7.46,7.46,0,0,0,7-4.88,7.41,7.41,0,0,0,7,4.88h5a7.4,7.4,0,0,0,7.43-7.38,7.08,7.08,0,0,0-.08-1.13ZM212.7,39.31l-.89-4.82c.16,0,.32,0,.49,0h.4Z" fill="#330d73"/></g></g><g id="Group_3" data-name="Group 3"><path id="Path_16" data-name="Path 16" d="M16.85,12.13h9.33A2.22,2.22,0,0,1,28.37,14l5.7,36.08h.17L39.94,14a2.23,2.23,0,0,1,2.2-1.88h9.32a2.22,2.22,0,0,1,2.22,2.22V63a2.21,2.21,0,0,1-2.22,2.22H47A2.21,2.21,0,0,1,44.77,63V25H44.6L38.06,63.33a2.21,2.21,0,0,1-2.18,1.84H31.74a2.21,2.21,0,0,1-2.18-1.84L23,25h-.17V63a2.21,2.21,0,0,1-2.22,2.22H16.85A2.22,2.22,0,0,1,14.63,63V14.35A2.23,2.23,0,0,1,16.85,12.13Z" fill="#d62196"/><path id="Path_17" data-name="Path 17" d="M63.6,12.13H84.85a2.23,2.23,0,0,1,2.22,2.22v3.14a2.22,2.22,0,0,1-2.22,2.22H73a2.21,2.21,0,0,0-2.22,2.22v9.58A2.22,2.22,0,0,0,73,33.73h8.49A2.22,2.22,0,0,1,83.73,36v3.13a2.22,2.22,0,0,1-2.22,2.22H73a2.22,2.22,0,0,0-2.22,2.22V55.37A2.21,2.21,0,0,0,73,57.59H84.85a2.23,2.23,0,0,1,2.22,2.22V63a2.22,2.22,0,0,1-2.22,2.22H63.6A2.22,2.22,0,0,1,61.38,63V14.35A2.23,2.23,0,0,1,63.6,12.13Z" fill="#d62196"/><path id="Path_18" data-name="Path 18" d="M96.1,62.52q-3.55-3.41-3.55-9.62V24.41q0-6.21,3.55-9.63t10.32-3.4q6.77,0,10.31,3.4t3.56,9.63V27.8A2.22,2.22,0,0,1,118.07,30H113.6a2.22,2.22,0,0,1-2.22-2.21V23.88q0-4.93-4.71-4.93T102,23.88V53.5c0,3.24,1.57,4.85,4.7,4.85s4.71-1.61,4.71-4.85V47.62a2.22,2.22,0,0,1,2.22-2.22h4.47a2.22,2.22,0,0,1,2.22,2.22V52.9q0,6.21-3.56,9.62t-10.31,3.41Q99.66,65.93,96.1,62.52Z" fill="#d62196"/><path id="Path_19" data-name="Path 19" d="M128.84,12.13h5A2.22,2.22,0,0,1,136,14.35V63a2.21,2.21,0,0,1-2.22,2.22h-5A2.22,2.22,0,0,1,126.62,63V14.35A2.23,2.23,0,0,1,128.84,12.13Z" fill="#d62196"/><path id="Path_20" data-name="Path 20" d="M146,12.13h7.93a2.22,2.22,0,0,1,2.13,1.6l8.7,30.15h.17V14.35a2.23,2.23,0,0,1,2.22-2.22h3.95a2.22,2.22,0,0,1,2.22,2.22V63a2.21,2.21,0,0,1-2.22,2.22h-5.79a2.21,2.21,0,0,1-2.13-1.6L152.3,26.45h-.17V63a2.21,2.21,0,0,1-2.22,2.22H146A2.22,2.22,0,0,1,143.74,63V14.35A2.23,2.23,0,0,1,146,12.13Z" fill="#d62196"/><path id="Path_21" data-name="Path 21" d="M190.11,12.13h9.07A2.23,2.23,0,0,1,201.36,14l8.94,48.6a2.22,2.22,0,0,1-1.78,2.59,2.69,2.69,0,0,1-.4,0h-4.87a2.23,2.23,0,0,1-2.19-1.86l-1.41-8.67v.15h-8.81a2.21,2.21,0,0,0-2.19,1.86l-1.1,6.66a2.22,2.22,0,0,1-2.19,1.86h-4.19A2.21,2.21,0,0,1,179,63a1.81,1.81,0,0,1,0-.4L187.93,14A2.22,2.22,0,0,1,190.11,12.13Zm5.83,35.46a2.22,2.22,0,0,0,2.22-2.22,2.16,2.16,0,0,0,0-.35l-3.79-23.64h-.17L190.46,45a2.22,2.22,0,0,0,1.85,2.54l.35,0Z" fill="#d62196"/><path id="Path_22" data-name="Path 22" d="M217.21,19.71H211.8a2.21,2.21,0,0,1-2.21-2.22V14.35a2.22,2.22,0,0,1,2.21-2.22h24.68a2.23,2.23,0,0,1,2.22,2.22v3.14a2.23,2.23,0,0,1-2.22,2.22h-5.41a2.21,2.21,0,0,0-2.22,2.22V63a2.21,2.21,0,0,1-2.22,2.22h-5A2.21,2.21,0,0,1,219.43,63v-41a2.21,2.21,0,0,0-2.22-2.22Z" fill="#d62196"/><path id="Path_23" data-name="Path 23" d="M246.57,62.44q-3.67-3.48-3.68-9.85V24.71q0-6.36,3.68-9.85t10.62-3.49q6.93,0,10.62,3.49t3.68,9.85V52.59q0,6.38-3.68,9.85t-10.62,3.49Q250.26,65.93,246.57,62.44Zm15.5-9.32V24.18c0-3.48-1.62-5.23-4.88-5.23s-4.88,1.75-4.88,5.23v29c0,3.48,1.63,5.23,4.88,5.23s4.88-1.75,4.88-5.23Z" fill="#d62196"/><path id="Path_24" data-name="Path 24" d="M278.51,14.35a2.22,2.22,0,0,1,2.22-2.22h11.73q7.29,0,10.62,3t3.34,9.2v3.26q0,8.27-6.16,10.46v.15a7.11,7.11,0,0,1,4.83,3.71,16.81,16.81,0,0,1,1.42,7.5v9.32a30,30,0,0,0,.17,3.67l0,.2a2.23,2.23,0,0,1-1.86,2.54,1.84,1.84,0,0,1-.33,0h-5a2.23,2.23,0,0,1-2.16-1.68c-.06-.25-.1-.5-.14-.74a33,33,0,0,1-.17-4.1V49q0-3.63-1.33-5.07t-4.58-1.44h-1a2.22,2.22,0,0,0-2.22,2.22V63a2.21,2.21,0,0,1-2.22,2.22h-5A2.22,2.22,0,0,1,278.51,63Zm12.84,20.51a6.06,6.06,0,0,0,4.24-1.29c.94-.86,1.41-2.29,1.41-4.32V25.16A6.17,6.17,0,0,0,295.85,21a4.64,4.64,0,0,0-3.64-1.29h-2.06a2.21,2.21,0,0,0-2.22,2.22V32.64a2.21,2.21,0,0,0,2.22,2.22Z" fill="#d62196"/></g></g></svg>